<?xml version="1.0" encoding="UTF-8" standalone="no"?>
<svg width="19px" height="16px" viewBox="0 0 19 16" version="1.1" xmlns="http://www.w3.org/2000/svg" xmlns:xlink="http://www.w3.org/1999/xlink">
    <!-- Generator: Sketch 3.8.2 (29753) - http://www.bohemiancoding.com/sketch -->
    <title></title>
    <desc>Created with Sketch.</desc>
    <defs></defs>
    <g id="Home" stroke="none" stroke-width="1" fill="none" fill-rule="evenodd">
        <g id="JGOS---Home-Copy" transform="translate(-985.000000, -3950.000000)" fill="#737373">
            <g id="About-JGOS" transform="translate(0.000000, 3720.000000)">
                <path d="M993.571439,232.428555 C993.571439,231.245518 992.611616,230.285696 991.428579,230.285696 L987.14286,230.285696 C985.959823,230.285696 985,231.245518 985,232.428555 L985,236.714275 C985,237.897312 985.959823,238.857134 987.14286,238.857134 L989.642863,238.857134 C990.234381,238.857134 990.714293,239.337046 990.714293,239.928564 L990.714293,240.285707 C990.714293,241.85937 989.430809,243.142854 987.857146,243.142854 L987.14286,243.142854 C986.752234,243.142854 986.428573,243.466515 986.428573,243.85714 L986.428573,245.285713 C986.428573,245.676339 986.752234,246 987.14286,246 L987.857146,246 C991.004471,246 993.571439,243.433033 993.571439,240.285707 L993.571439,232.428555 Z M1003.57145,232.428555 C1003.57145,231.245518 1002.61163,230.285696 1001.42859,230.285696 L997.142872,230.285696 C995.959834,230.285696 995.000012,231.245518 995.000012,232.428555 L995.000012,236.714275 C995.000012,237.897312 995.959834,238.857134 997.142872,238.857134 L999.642875,238.857134 C1000.23439,238.857134 1000.7143,239.337046 1000.7143,239.928564 L1000.7143,240.285707 C1000.7143,241.85937 999.430821,243.142854 997.857158,243.142854 L997.142872,243.142854 C996.752246,243.142854 996.428585,243.466515 996.428585,243.85714 L996.428585,245.285713 C996.428585,245.676339 996.752246,246 997.142872,246 L997.857158,246 C1001.00448,246 1003.57145,243.433033 1003.57145,240.285707 L1003.57145,232.428555 Z" id=""></path>
            </g>
        </g>
    </g>
</svg>