<?xml version="1.0" encoding="UTF-8" standalone="no"?>
<svg width="23px" height="19px" viewBox="0 0 23 19" version="1.1" xmlns="http://www.w3.org/2000/svg" xmlns:xlink="http://www.w3.org/1999/xlink">
    <!-- Generator: Sketch 3.8.2 (29753) - http://www.bohemiancoding.com/sketch -->
    <title></title>
    <desc>Created with Sketch.</desc>
    <defs></defs>
    <g id="Home" stroke="none" stroke-width="1" fill="none" fill-rule="evenodd">
        <g id="JGOS---Home-Copy" transform="translate(-411.000000, -3885.000000)" fill="#737373">
            <g id="About-JGOS" transform="translate(0.000000, 3720.000000)">
                <path d="M421.285727,176.285705 C421.285727,174.866061 420.133939,173.714273 418.714295,173.714273 L415.714291,173.714273 C415.004469,173.714273 414.428576,173.13838 414.428576,172.428558 L414.428576,171.999986 C414.428576,170.111591 415.968756,168.57141 417.857151,168.57141 L418.714295,168.57141 C419.183045,168.57141 419.571439,168.183017 419.571439,167.714266 L419.571439,165.999979 C419.571439,165.531228 419.183045,165.142835 418.714295,165.142835 L417.857151,165.142835 C414.080361,165.142835 411,168.223195 411,171.999986 L411,181.428568 C411,182.848213 412.151787,184 413.571432,184 L418.714295,184 C420.133939,184 421.285727,182.848213 421.285727,181.428568 L421.285727,176.285705 Z M433.285741,176.285705 C433.285741,174.866061 432.133954,173.714273 430.714309,173.714273 L427.714306,173.714273 C427.004483,173.714273 426.42859,173.13838 426.42859,172.428558 L426.42859,171.999986 C426.42859,170.111591 427.96877,168.57141 429.857165,168.57141 L430.714309,168.57141 C431.18306,168.57141 431.571453,168.183017 431.571453,167.714266 L431.571453,165.999979 C431.571453,165.531228 431.18306,165.142835 430.714309,165.142835 L429.857165,165.142835 C426.080375,165.142835 423.000014,168.223195 423.000014,171.999986 L423.000014,181.428568 C423.000014,182.848213 424.151801,184 425.571446,184 L430.714309,184 C432.133954,184 433.285741,182.848213 433.285741,181.428568 L433.285741,176.285705 Z" id=""></path>
            </g>
        </g>
    </g>
</svg>